# xmcd
#
# Track frame offsets:
#	150
#	17505
#	36790
#	56878
#	71466
#	88990
#	102828
#	121501
#	135648
#	153421
#	180894
#
# Disc length: 2662 seconds
#
# Revision: 1
# Processed by: cddbd v1.5.2PL0 Copyright (c) Steve Scherf et al.
# Submitted via: EZCDAudioConverter 4.0.5.1
#
DISCID=840a640b
DTITLE=Hank Williams, Jr. - 127 Rose Avenue
DYEAR=2009
DGENRE=Country
TTITLE0=Farm Song
TTITLE1=Red, White and Pink-Slip Blues
TTITLE2=High Maintenance Woman
TTITLE3=Mighty Oak Trees
TTITLE4=Forged by Fire
TTITLE5=Last Driftin' Cowboy
TTITLE6=127 Rose Avenue
TTITLE7=All the Roads (feat. The Grascals)
TTITLE8=Sounds Like Justice
TTITLE9=Long Gone Lonesome Blues
TTITLE10=Gulf Shore Road
EXTD=
EXTT0=
EXTT1=
EXTT2=
EXTT3=
EXTT4=
EXTT5=
EXTT6=
EXTT7=
EXTT8=
EXTT9=
EXTT10=
PLAYORDER=
